<svg id="Layer_1" data-name="Layer 1" xmlns="http://www.w3.org/2000/svg" viewBox="0 0 825.05 97.66"><defs><style>.cls-1{fill:#af0036;}.cls-2{fill:#ff521d;}</style></defs><title>cranberry-logo</title><path class="cls-1" d="M315.36,430.59a42.92,42.92,0,0,1-16.74-3.42,42.48,42.48,0,0,1-14.69-10.41,48.56,48.56,0,0,1-9.61-15.44,51.68,51.68,0,0,1,0-36.45,47.12,47.12,0,0,1,9.61-15.31,43,43,0,0,1,14.75-10.47,42.41,42.41,0,0,1,16.74-3.49,42,42,0,0,1,16.68,3.49,43.2,43.2,0,0,1,14.69,10.47L332.4,364.94a23,23,0,0,0-8-5.63,23.41,23.41,0,0,0-9.06-1.87,23,23,0,0,0-16.92,7.5,27.14,27.14,0,0,0-5.2,8.4,26.75,26.75,0,0,0-1.81,9.82,26.28,26.28,0,0,0,1.81,9.76,27.18,27.18,0,0,0,5.2,8.33,23.15,23.15,0,0,0,7.91,5.63,22.88,22.88,0,0,0,9,1.87,23.31,23.31,0,0,0,17-7.5l14.39,15.51a42.33,42.33,0,0,1-31.43,13.83Z" transform="translate(-271 -335.08)"/><path class="cls-1" d="M379.66,406.17c-1,.17-2.09.3-3.14.38l-3.26.26v23.91H352.83V336.24h20.43a37.71,37.71,0,0,1,14.26,3,39.09,39.09,0,0,1,11.66,7.62,34.74,34.74,0,0,1,7.86,11.1,32.75,32.75,0,0,1,2.84,13.55,33.21,33.21,0,0,1-3,14.13,34,34,0,0,1-8.46,11.3L418,430.72H393.93Zm-6.4-21.33a19.65,19.65,0,0,0,6.22-1.23,18.1,18.1,0,0,0,5.2-2.91,13.33,13.33,0,0,0,3.5-4.2,10.65,10.65,0,0,0,1.27-5.1,10.31,10.31,0,0,0-1.27-5,13.81,13.81,0,0,0-3.5-4.14,18.58,18.58,0,0,0-5.2-2.91,19.93,19.93,0,0,0-6.22-1.22Z" transform="translate(-271 -335.08)"/><path class="cls-1" d="M477.69,430.72l-3.51-11.5H446.26l-3.62,11.5H421l30.22-94.86h19.34l28.65,94.86Zm-24.42-33.34h14.39l-7-23Z" transform="translate(-271 -335.08)"/><path class="cls-1" d="M556.38,335.86H576.8v94.86H554.68l-29-55.31v55.31H505.25V336.11h22.24l28.89,55.19Z" transform="translate(-271 -335.08)"/><path class="cls-1" d="M635.79,373.6a32.74,32.74,0,0,1,8.94,10.92,31.15,31.15,0,0,1,.61,26.49A32.34,32.34,0,0,1,638,421.29a34.76,34.76,0,0,1-24,9.43H588V335.47l23.57.13a27,27,0,0,1,10.52,2.07,28.3,28.3,0,0,1,8.7,5.62,26,26,0,0,1,5.87,8.27,24.7,24.7,0,0,1,2.11,10.15A24.11,24.11,0,0,1,635.79,373.6Zm-27.32-16.29v8.79h3.26a8.17,8.17,0,0,0,4.84-1.57,3.92,3.92,0,0,0,1.81-2.89c0-.87-.6-1.81-1.81-2.82a7.5,7.5,0,0,0-5-1.51ZM614,408.88a15.91,15.91,0,0,0,5.14-.84,15.48,15.48,0,0,0,4.35-2.28,11.06,11.06,0,0,0,3-3.32,7.75,7.75,0,0,0,1.09-4,8.11,8.11,0,0,0-1.09-4,10.84,10.84,0,0,0-3-3.39,15.21,15.21,0,0,0-4.35-2.27,15.66,15.66,0,0,0-5.14-.85h-5.56v20.94Z" transform="translate(-271 -335.08)"/><path class="cls-1" d="M711,357.7h-36.5V372h29.61v21.85H674.47v15H711v21.84H654V336l56.93-.13Z" transform="translate(-271 -335.08)"/><path class="cls-1" d="M748.32,406.17c-1.05.17-2.1.3-3.14.38l-3.27.26v23.91H721.49V336.24h20.42a37.77,37.77,0,0,1,14.27,3,39.21,39.21,0,0,1,11.66,7.62,35,35,0,0,1,7.86,11.1,34.11,34.11,0,0,1-.19,27.68,33.72,33.72,0,0,1-8.46,11.3l19.58,33.81h-24Zm-6.41-21.33a19.72,19.72,0,0,0,6.23-1.23,18.17,18.17,0,0,0,5.19-2.91,13.5,13.5,0,0,0,3.51-4.2,10.65,10.65,0,0,0,1.27-5.1,10.31,10.31,0,0,0-1.27-5,14,14,0,0,0-3.51-4.14,18.66,18.66,0,0,0-5.19-2.91,20,20,0,0,0-6.23-1.22Z" transform="translate(-271 -335.08)"/><path class="cls-1" d="M822.41,406.17c-1,.17-2.09.3-3.14.38l-3.26.26v23.91H795.58V336.24H816a37.71,37.71,0,0,1,14.26,3,39.09,39.09,0,0,1,11.66,7.62,34.89,34.89,0,0,1,7.86,11.1,32.75,32.75,0,0,1,2.84,13.55,33.21,33.21,0,0,1-3,14.13,34,34,0,0,1-8.46,11.3l19.58,33.81H836.67ZM816,384.84a19.71,19.71,0,0,0,6.22-1.23,18.23,18.23,0,0,0,5.2-2.91,13.33,13.33,0,0,0,3.5-4.2,10.65,10.65,0,0,0,1.27-5.1,10.31,10.31,0,0,0-1.27-5,13.81,13.81,0,0,0-3.5-4.14,18.72,18.72,0,0,0-5.2-2.91,20,20,0,0,0-6.22-1.22Z" transform="translate(-271 -335.08)"/><path class="cls-1" d="M883.45,430.72l10.27-26.88-30.33-68.76H886l18.25,41.23,15.59-41.23H942l-36.38,95.64Z" transform="translate(-271 -335.08)"/><path class="cls-2" d="M998.51,430.72H978.08v-95h20.43Z" transform="translate(-271 -335.08)"/><path class="cls-2" d="M1069.82,335.73h21l5.2,95h-20.43L1073.45,392l-12.33,38.77h-20.43l-13.06-40.32-2.41,40.32h-20.55l5.68-95h21l19.46,59.45Z" transform="translate(-271 -335.08)"/><path class="cls-2" d="M958,421.5a11.22,11.22,0,0,1-3.09,7.95,10,10,0,0,1-14.86,0,11.77,11.77,0,0,1,0-15.9,10,10,0,0,1,14.86,0A11.22,11.22,0,0,1,958,421.5Z" transform="translate(-271 -335.08)"/></svg>